<mxfile host="65bd71144e">
    <diagram id="TwaQKOcTD9O3Vn-iSYpt" name="第 1 页">
        <mxGraphModel dx="1103" dy="449" grid="0" gridSize="10" guides="1" tooltips="1" connect="1" arrows="1" fold="1" page="1" pageScale="1" pageWidth="1169" pageHeight="827" math="0" shadow="0">
            <root>
                <mxCell id="0"/>
                <mxCell id="1" parent="0"/>
                <mxCell id="4" value="在线考试系统" style="shape=umlFrame;whiteSpace=wrap;html=1;width=481;height=15;" vertex="1" parent="1">
                    <mxGeometry x="179" y="99" width="812" height="634" as="geometry"/>
                </mxCell>
                <mxCell id="5" value="未完成试卷管理" style="ellipse;whiteSpace=wrap;html=1;" vertex="1" parent="1">
                    <mxGeometry x="235" y="187" width="140" height="70" as="geometry"/>
                </mxCell>
                <mxCell id="6" value="" style="text;strokeColor=none;fillColor=none;align=left;verticalAlign=middle;spacingTop=-1;spacingLeft=4;spacingRight=4;rotatable=0;labelPosition=right;points=[];portConstraint=eastwest;" vertex="1" parent="1">
                    <mxGeometry x="557" y="313" width="20" height="14" as="geometry"/>
                </mxCell>
                <mxCell id="7" value="学生" style="shape=umlActor;verticalLabelPosition=bottom;verticalAlign=top;html=1;" vertex="1" parent="1">
                    <mxGeometry x="76" y="232" width="30" height="60" as="geometry"/>
                </mxCell>
                <mxCell id="9" value="在线考试" style="ellipse;whiteSpace=wrap;html=1;" vertex="1" parent="1">
                    <mxGeometry x="458" y="187" width="140" height="70" as="geometry"/>
                </mxCell>
                <mxCell id="11" value="include&lt;br&gt;" style="endArrow=open;endSize=12;dashed=1;html=1;exitX=1;exitY=0.5;exitDx=0;exitDy=0;entryX=0;entryY=0.5;entryDx=0;entryDy=0;" edge="1" parent="1" source="5" target="9">
                    <mxGeometry x="0.025" y="6" width="160" relative="1" as="geometry">
                        <mxPoint x="377" y="178" as="sourcePoint"/>
                        <mxPoint x="537" y="178" as="targetPoint"/>
                        <mxPoint x="1" as="offset"/>
                    </mxGeometry>
                </mxCell>
                <mxCell id="13" value="浏览统计数据" style="ellipse;whiteSpace=wrap;html=1;" vertex="1" parent="1">
                    <mxGeometry x="475" y="117" width="140" height="70" as="geometry"/>
                </mxCell>
                <mxCell id="15" value="教师" style="shape=umlActor;verticalLabelPosition=bottom;verticalAlign=top;html=1;" vertex="1" parent="1">
                    <mxGeometry x="1047" y="308" width="30" height="60" as="geometry"/>
                </mxCell>
                <mxCell id="17" value="" style="endArrow=none;html=1;exitX=0.5;exitY=0;exitDx=0;exitDy=0;exitPerimeter=0;entryX=0;entryY=0.5;entryDx=0;entryDy=0;" edge="1" parent="1" source="7" target="13">
                    <mxGeometry width="50" height="50" relative="1" as="geometry">
                        <mxPoint x="115" y="204" as="sourcePoint"/>
                        <mxPoint x="165" y="154" as="targetPoint"/>
                        <Array as="points">
                            <mxPoint x="88" y="155"/>
                        </Array>
                    </mxGeometry>
                </mxCell>
                <mxCell id="18" value="" style="endArrow=none;html=1;entryX=0.75;entryY=0.1;entryDx=0;entryDy=0;entryPerimeter=0;exitX=0;exitY=0.5;exitDx=0;exitDy=0;" edge="1" parent="1" source="5" target="7">
                    <mxGeometry width="50" height="50" relative="1" as="geometry">
                        <mxPoint x="567" y="257" as="sourcePoint"/>
                        <mxPoint x="157" y="263" as="targetPoint"/>
                    </mxGeometry>
                </mxCell>
                <mxCell id="19" value="" style="endArrow=none;html=1;entryX=0.25;entryY=0.1;entryDx=0;entryDy=0;entryPerimeter=0;exitX=1;exitY=0.5;exitDx=0;exitDy=0;" edge="1" parent="1" source="13" target="15">
                    <mxGeometry width="50" height="50" relative="1" as="geometry">
                        <mxPoint x="766" y="306" as="sourcePoint"/>
                        <mxPoint x="816" y="256" as="targetPoint"/>
                        <Array as="points">
                            <mxPoint x="1062" y="159"/>
                        </Array>
                    </mxGeometry>
                </mxCell>
            </root>
        </mxGraphModel>
    </diagram>
</mxfile>